# xmcd
#
# Track frame offsets: 
#        150
#        14291
#        39961
#        60905
#        76291
#        98969
#        120394
#        143135
#
# Disc length: 2133 seconds
#
# Revision: 0
# Processed by: cddbd v1.5.2PL0 Copyright (c) Steve Scherf et al.
# Submitted via: ExactAudioCopyFreeDBPlugin 1.0
#
DISCID=56085308
DTITLE=Brucher Blues Band - Mein Haus brennt
DYEAR=2014
DGENRE=Blues
TTITLE0=Bröjer Jongen
TTITLE1=Mein Haus brennt
TTITLE2=Frühschoppen
TTITLE3=Aufgewacht im Baggerschacht
TTITLE4=Mannies Blues
TTITLE5=Die Zeit ist reif
TTITLE6=Red House Blues
TTITLE7=Die Welt
EXTD=
EXTT0=
EXTT1=
EXTT2=
EXTT3=
EXTT4=
EXTT5=
EXTT6=
EXTT7=
PLAYORDER=
